<?xml version="1.0" standalone="no"?><!DOCTYPE svg PUBLIC "-//W3C//DTD SVG 1.1//EN" "http://www.w3.org/Graphics/SVG/1.1/DTD/svg11.dtd"><svg t="1611659111322" class="icon" viewBox="0 0 1024 1024" version="1.1" xmlns="http://www.w3.org/2000/svg" p-id="14145" width="128" height="128" xmlns:xlink="http://www.w3.org/1999/xlink"><defs><style type="text/css"></style></defs><path d="M278.2 229.2h39.1L440 247.6h-39.1z" fill="#dbdbdb" p-id="14146"></path><path d="M400.9 247.6H440s0.9 0.1 2.2 0.1h-39.1c-1.4 0.1-2.2-0.1-2.2-0.1z" fill="#dbdbdb" p-id="14147"></path><path d="M497.1 117.2h39.1c4.8 0 9.2 3 12.2 7.8h-39.1c-3-4.9-7.4-7.8-12.2-7.8zM515.3 749.7h39.1V896h-39.1z" fill="#dbdbdb" p-id="14148"></path><path d="M509.3 124.9h39.1l68.3 113.9h-39.2z" fill="#dbdbdb" p-id="14149"></path><path d="M577.5 238.8h39.1c0.1 0.2 2.5 4.6 6.3 7 2.6 1.7 5.8 1.9 7.5 1.9h-39.1c-1.7 0-4.9-0.2-7.5-1.9-3.7-2.4-6.1-6.8-6.3-7zM715.1 229.1h39.1c9.3 0.5 16.5 11 16.5 23.9 0.2 56.3-4.4 190.2-46.5 299.1-54.8 141.6-137 183.3-169.8 197.6h-39.1c32.8-14.3 115-56 169.8-197.6C727.3 443.2 731.8 309.2 731.6 253c0-13-7.2-23.5-16.5-23.9z" fill="#dbdbdb" p-id="14150"></path><path d="M497.1 117.2c4.8 0 9.2 3 12.2 7.8l68.3 113.9c0.1 0.2 2.5 4.6 6.3 7 2.6 1.7 5.8 1.9 7.5 1.9l123.8-18.7c9.3 0.5 16.5 11 16.5 23.9 0.2 56.3-4.4 190.2-46.5 299.1-54.8 141.6-137 183.3-169.8 197.6V896h-36.1V749.7c-32.8-14.3-115.8-56-170.6-197.6C266.4 443.2 261.9 309.2 262 253.2c0-13.2 7.2-23.7 16.1-24l122.7 18.4s0.9 0.1 2.2 0.1c1.9 0 4.7-0.3 6.8-1.7 3.5-2.4 6-6.7 6.1-6.9l69.2-114.9c3.2-4.3 7.4-7 12-7z" fill="#dbdbdb" p-id="14151"></path><path d="M247.5 758.5h39.1c-8 0-16.1 1.3-23.8 4-11.3 4-31.4 14.8-39.2 41.5-2.3 8-7.8 12.9-13.5 12.9H171c5.7 0 11.1-4.9 13.5-12.9 7.8-26.8 27.9-37.5 39.2-41.5 7.7-2.6 15.8-4 23.8-4z" fill="#dbdbdb" p-id="14152"></path><path d="M247.5 716.5h39.1c14.7 0 29.2 3.5 41.6 10.5 20.8 11.6 41.1 32.7 60.2 62.7 14.7 23.1 28.7 51.4 41.7 84.1H391c-13-32.7-27-61-41.7-84.1-19.1-30-39.4-51.1-60.2-62.7-12.5-7-26.9-10.5-41.6-10.5z" fill="#dbdbdb" p-id="14153"></path><path d="M391 873.8c4 10.1 1.6 22.9-5.4 28.7-1.3 1-2.6 1.8-3.9 2.2-5.9-1.3-13.9-4.8-16-10-18.6-46.8-48.8-107.1-87.1-128.5-9.1-5.1-20-7.6-31.1-7.6-8 0-16.1 1.3-23.8 4-11.3 4-31.4 14.8-39.2 41.5-2.3 8-7.8 12.9-13.5 12.9-1.9 0-3.8-0.5-5.6-1.6-7.4-4.5-10.9-16.8-7.8-27.5 9.4-32.4 30.4-55.9 59.1-66.1 9.9-3.5 20.4-5.3 30.7-5.3 14.7 0 29.2 3.5 41.6 10.5 20.8 11.6 41.1 32.7 60.2 62.7 14.8 23.1 28.8 51.4 41.8 84.1z" fill="#dbdbdb" p-id="14154"></path><path d="M391 873.8h39.1c4 10.1 1.6 22.9-5.4 28.7-1.3 1-2.6 1.8-3.9 2.2h-39.1c1.3-0.5 2.7-1.2 3.9-2.2 7-5.8 9.4-18.6 5.4-28.7z" fill="#dbdbdb" p-id="14155"></path><path d="M788.9 760.7h-39.1c8 0 16.1 1.3 23.8 4 11.3 4 31.4 14.8 39.2 41.5 2.3 8 7.8 12.9 13.5 12.9h39.1c-5.7 0-11.1-4.9-13.5-12.9-7.8-26.8-27.9-37.5-39.2-41.5-7.7-2.7-15.8-4-23.8-4z" fill="#dbdbdb" p-id="14156"></path><path d="M788.9 718.7h-39.1c-14.7 0-29.2 3.5-41.6 10.5-20.8 11.6-41.1 32.7-60.2 62.7-14.7 23.1-28.7 51.4-41.7 84.1h39.1c13-32.7 27-61 41.7-84.1 19.1-30 39.4-51.1 60.2-62.7 12.4-7 26.9-10.5 41.6-10.5z" fill="#dbdbdb" p-id="14157"></path><path d="M645.3 876c-4 10.1-1.6 22.9 5.4 28.7 1.3 1 2.6 1.8 3.9 2.2 5.9-1.3 13.9-4.8 16-10 18.6-46.8 48.8-107.1 87.1-128.5 9.1-5.1 20-7.6 31.1-7.6 8 0 16.1 1.3 23.8 4 11.3 4 31.4 14.8 39.2 41.5 2.3 8 7.8 12.9 13.5 12.9 1.9 0 3.8-0.5 5.6-1.6 7.4-4.5 10.9-16.8 7.8-27.5-9.4-32.4-30.4-55.9-59.1-66.1-9.9-3.5-20.4-5.3-30.7-5.3-14.7 0-29.2 3.5-41.6 10.5-20.8 11.6-41.1 32.7-60.2 62.7-14.7 23-28.8 51.3-41.8 84.1z" fill="#dbdbdb" p-id="14158"></path><path d="M645.3 876h-39.1c-4 10.1-1.6 22.9 5.4 28.7 1.3 1 2.6 1.8 3.9 2.2h39.1c-1.3-0.5-2.7-1.2-3.9-2.2-6.9-5.8-9.4-18.7-5.4-28.7z" fill="#dbdbdb" p-id="14159"></path></svg>