<?xml version="1.0" standalone="no"?><!DOCTYPE svg PUBLIC "-//W3C//DTD SVG 1.1//EN" "http://www.w3.org/Graphics/SVG/1.1/DTD/svg11.dtd"><svg t="1611658747165" class="icon" viewBox="0 0 1024 1024" version="1.1" xmlns="http://www.w3.org/2000/svg" p-id="7410" xmlns:xlink="http://www.w3.org/1999/xlink" width="128" height="128"><defs><style type="text/css"></style></defs><path d="M512 0a153.6 153.6 0 0 1 153.6 153.6v716.8a153.6 153.6 0 0 1-153.6 153.6H153.6a153.6 153.6 0 0 1-153.6-153.6V153.6a153.6 153.6 0 0 1 153.6-153.6h358.4z m512 921.6a102.4 102.4 0 0 1-102.4 102.4h-102.4a102.4 102.4 0 0 1-102.4-102.4V102.4a102.4 102.4 0 0 1 102.4-102.4h102.4a102.4 102.4 0 0 1 102.4 102.4v819.2zM512 102.4H153.6a51.2 51.2 0 0 0-50.8416 45.2096L102.4 153.6v716.8a51.2 51.2 0 0 0 45.2096 50.8416L153.6 921.6h358.4a51.2 51.2 0 0 0 50.8416-45.2096L563.2 870.4V153.6a51.2 51.2 0 0 0-45.2096-50.8416L512 102.4z m409.6 665.6h-102.4v153.6h102.4v-153.6z m-460.8-51.2v51.2H204.8v-51.2h256z m460.8-614.4h-102.4v614.4h102.4V102.4zM281.6 204.8a76.8 76.8 0 1 1 0 153.6 76.8 76.8 0 0 1 0-153.6z" p-id="7411" fill="#cdcdcd"></path></svg>