<?xml version="1.0" standalone="no"?><!DOCTYPE svg PUBLIC "-//W3C//DTD SVG 1.1//EN" "http://www.w3.org/Graphics/SVG/1.1/DTD/svg11.dtd"><svg t="1612104296003" class="icon" viewBox="0 0 1024 1024" version="1.1" xmlns="http://www.w3.org/2000/svg" p-id="3105" xmlns:xlink="http://www.w3.org/1999/xlink" width="128" height="128"><defs><style type="text/css"></style></defs><path d="M896 640h-32V512H544v-64h96a64.19 64.19 0 0 0 64-64V256a64.19 64.19 0 0 0-64-64H384a64.19 64.19 0 0 0-64 64v128a64.19 64.19 0 0 0 64 64h96v64H160v128h-32a64.19 64.19 0 0 0-64 64v64a64.19 64.19 0 0 0 64 64h128a64.19 64.19 0 0 0 64-64v-64a64.19 64.19 0 0 0-64-64h-32v-64h256v64h-32a64.19 64.19 0 0 0-64 64v64a64.19 64.19 0 0 0 64 64h128a64.19 64.19 0 0 0 64-64v-64a64.19 64.19 0 0 0-64-64h-32v-64h256v64h-32a64.19 64.19 0 0 0-64 64v64a64.19 64.19 0 0 0 64 64h128a64.19 64.19 0 0 0 64-64v-64a64.19 64.19 0 0 0-64-64z" p-id="3106" fill="#cdcdcd"></path></svg>