<?xml version="1.0" standalone="no"?><!DOCTYPE svg PUBLIC "-//W3C//DTD SVG 1.1//EN" "http://www.w3.org/Graphics/SVG/1.1/DTD/svg11.dtd"><svg t="1611659161381" class="icon" viewBox="0 0 1024 1024" version="1.1" xmlns="http://www.w3.org/2000/svg" p-id="15157" width="128" height="128" xmlns:xlink="http://www.w3.org/1999/xlink"><defs><style type="text/css"></style></defs><path d="M490.06 889.25l-340.3-0.31V288.26h673.63l2.99 186.57c0.3 18.54 15.43 33.39 33.93 33.39h0.55c18.75-0.31 33.7-15.73 33.4-34.49l-3.6-225.11c-0.08-4.61-1.11-9-2.87-12.99-1.25-3.53-2.96-6.94-5.23-10.08L779.77 83.57c-7.4-10.3-19.39-16.44-32.06-16.44H225.2c-12.61 0-24.56 6.1-32.03 16.37L90.38 225.55c-4.24 5.85-6.62 12.57-7.28 19.45-0.72 2.75-1.22 5.58-1.22 8.55v635.4c0 37.61 30.59 68.19 68.2 68.19h339.98c18.75 0 33.94-15.2 33.94-33.94 0-18.75-15.19-33.95-33.94-33.95zM239.69 135h493.53l61.79 85.38h-617.1L239.69 135z" fill="#dbdbdb" p-id="15158"></path><path d="M356.33 411.49c-18.74 0-33.94 15.19-33.94 33.94 0 18.74 15.19 33.94 33.94 33.94h267.63c18.74 0 33.94-15.19 33.94-33.94 0-18.74-15.19-33.94-33.94-33.94H356.33zM932.34 879.55l-87.73-87.72c-1.48-1.48-3.36-2.18-5.02-3.34 18.22-25.76 29.04-57.1 29.04-90.99 0-87.12-70.88-158-158.01-158s-158.03 70.88-158.03 158c0 87.14 70.89 158.03 158.03 158.03 29.67 0 57.36-8.37 81.11-22.66 1.44 2.45 2.63 5.02 4.73 7.12l87.73 87.72c13.3 13.3 34.86 13.3 48.16 0 13.29-13.29 13.29-34.86-0.01-48.16z m-221.72-91.89c-49.7 0-90.15-40.43-90.15-90.15 0-49.69 40.45-90.13 90.15-90.13s90.14 40.43 90.14 90.13c-0.01 49.71-40.44 90.15-90.14 90.15z" fill="#dbdbdb" p-id="15159"></path></svg>