<?xml version="1.0" standalone="no"?><!DOCTYPE svg PUBLIC "-//W3C//DTD SVG 1.1//EN" "http://www.w3.org/Graphics/SVG/1.1/DTD/svg11.dtd"><svg t="1611659188926" class="icon" viewBox="0 0 1024 1024" version="1.1" xmlns="http://www.w3.org/2000/svg" p-id="2607" width="128" height="128" xmlns:xlink="http://www.w3.org/1999/xlink"><defs><style type="text/css"></style></defs><path d="M832 896V469.376h42.666667V896.213333c0 23.466667-19.029333 42.474667-42.666667 42.474667H192c-23.573333 0-42.666667-18.986667-42.666667-42.453333V469.354667h42.666667V896h640zM465.621333 512l-97.813333-114.133333a21.333333 21.333333 0 1 1 32.384-27.733334L512 500.522667l111.786667-130.432a21.333333 21.333333 0 1 1 32.426666 27.776L558.357333 512h81.493334c11.84 0 21.461333 9.472 21.461333 21.333333 0 11.776-9.6 21.333333-21.482667 21.333334H533.333333v85.333333h106.517334c11.861333 0 21.482667 9.472 21.482666 21.333333 0 11.776-9.6 21.333333-21.482666 21.333334H533.333333v127.850666c0 11.861333-9.472 21.482667-21.333333 21.482667-11.776 0-21.333333-9.578667-21.333333-21.482667V682.666667h-106.517334A21.354667 21.354667 0 0 1 362.666667 661.333333c0-11.776 9.6-21.333333 21.482666-21.333333H490.666667v-85.333333h-106.517334A21.354667 21.354667 0 0 1 362.666667 533.333333c0-11.776 9.6-21.333333 21.482666-21.333333h81.472z m-365.589333-5.866667a21.333333 21.333333 0 1 1-29.397333-30.933333L466.282667 99.349333a66.688 66.688 0 0 1 91.434666 0L953.386667 475.2a21.333333 21.333333 0 1 1-29.397334 30.933333L528.341333 130.282667a24.021333 24.021333 0 0 0-32.682666 0L100.053333 506.133333z" fill="#dbdbdb" p-id="2608"></path></svg>