<?xml version="1.0" standalone="no"?><!DOCTYPE svg PUBLIC "-//W3C//DTD SVG 1.1//EN" "http://www.w3.org/Graphics/SVG/1.1/DTD/svg11.dtd"><svg t="1611916709670" class="icon" viewBox="0 0 1024 1024" version="1.1" xmlns="http://www.w3.org/2000/svg" p-id="2045" xmlns:xlink="http://www.w3.org/1999/xlink" width="128" height="128"><defs><style type="text/css"></style></defs><path d="M809.984 640l51.84 11.904-6.848 48.512c14.336 7.808 26.624 18.56 36.224 31.168l53.248-3.136 15.552 50.56-45.824 26.944a113.536 113.536 0 0 1-8.896 38.272l29.312 44.288-36.224 38.592-46.464-25.984a114.56 114.56 0 0 1-46.464 12.288l-15.296 46.592-51.776-11.904 6.72-48.512a113.792 113.792 0 0 1-36.352-31.232l-53.184 3.072-15.552-50.496 45.888-27.008a113.536 113.536 0 0 1 8.896-38.272l-29.248-44.224 36.224-38.592 46.464 25.92a114.56 114.56 0 0 1 46.4-12.16l15.36-46.592z m1.856 109.824l-14.272 0.64a50.368 50.368 0 0 0-13.888 2.688l-6.592 2.752-16.384 8.256-7.04 16.576a49.088 49.088 0 0 0-1.472 4.032l-1.216 4.16-0.768 4.288-0.448 4.224-1.024 17.728 11.008 14.464a49.92 49.92 0 0 0 9.984 9.92l5.952 3.84 12.48 6.72 14.336-0.64a50.368 50.368 0 0 0 13.888-2.624l6.592-2.816 16.32-8.256 8.576-20.544 1.152-4.224 0.832-4.224 0.384-4.288 0.96-17.792-10.944-14.4a49.92 49.92 0 0 0-9.92-9.856l-5.952-3.84-12.544-6.784zM465.472 58.496l38.336 105.152 13.12 2.816 16 4.48 15.744 5.248 12.352 4.992 90.88-65.92 143.168 153.088-72.32 85.888 4.096 12.416 4.224 16.128 1.728 8.192 1.536 8.192 1.792 12.928 102.784 45.568-61.44 200.256-110.656-19.52-8.832 9.856-11.84 11.712-12.48 10.944-10.496 8.128 11.776 111.424-204.416 47.04-38.4-105.216-13.056-2.752-16-4.48-15.744-5.248-12.416-5.056-90.88 65.92-143.104-153.088 72.256-85.824-4.032-12.416-4.224-16.128-1.728-8.192-1.536-8.192-1.92-13.056-102.656-45.44 61.44-200.256 110.592 19.456 8.96-9.792 11.776-11.712 12.48-10.944 10.432-8.192-11.712-111.36L465.472 58.496z m-40.832 75.008l-94.016 21.696 9.92 93.056-16.448 10.688a225.6 225.6 0 0 0-46.848 40.704l-9.792 12.032-11.84 15.616-92.608-16.384-28.096 91.904 85.76 37.952 1.152 19.584a226.624 226.624 0 0 0 12.8 63.36l4.608 11.968 7.616 18.048-60.416 71.616 65.792 70.336 76.032-55.04 17.408 8.768c18.56 9.344 38.4 16.192 58.752 20.16l15.36 2.496 19.456 2.432 32.064 87.936 94.016-21.696-9.856-92.992 16.448-10.688c17.472-11.392 33.216-25.088 46.848-40.704l9.792-12.032 11.84-15.616 92.544 16.32 28.096-91.904-85.76-37.952-1.088-19.52a226.624 226.624 0 0 0-12.8-63.36l-4.608-11.968-7.616-18.048 60.352-71.68-65.792-70.336-75.968 55.168-17.408-8.832a227.136 227.136 0 0 0-58.752-20.16l-15.36-2.496-19.456-2.432-32.128-88zM448 288a160 160 0 1 1 0 320 160 160 0 0 1 0-320z m0 64a96 96 0 1 0 0 192 96 96 0 0 0 0-192z" fill="#cdcdcd" p-id="2046"></path></svg>