<?xml version="1.0" standalone="no"?><!DOCTYPE svg PUBLIC "-//W3C//DTD SVG 1.1//EN" "http://www.w3.org/Graphics/SVG/1.1/DTD/svg11.dtd"><svg t="1612948048030" class="icon" viewBox="0 0 1024 1024" version="1.1" xmlns="http://www.w3.org/2000/svg" p-id="2269" xmlns:xlink="http://www.w3.org/1999/xlink" width="128" height="128"><defs><style type="text/css"></style></defs><path d="M965.632 512a34.676364 34.676364 0 0 0-34.676364 31.930182c-17.547636 231.610182-224.535273 411.229091-466.222545 384.302545-192.139636-21.410909-347.438545-176.477091-368.872727-368.337454C67.700364 307.572364 265.565091 93.090909 512.674909 93.090909c137.076364 0 262.865455 65.210182 341.643636 175.755636l-365.14909 373.76-177.710546-151.877818a35.025455 35.025455 0 0 0-49.314909 3.816728 34.909091 34.909091 0 0 0 3.84 49.221818l194.304 166.074182a46.638545 46.638545 0 0 0 63.674182-2.862546l393.704727-402.990545h-0.139636a46.545455 46.545455 0 0 0 5.12-58.577455C831.185455 105.192727 677.352727 22.109091 509.184 23.272727c-256.698182 1.792-472.692364 208.128-485.306182 464.151273C10.053818 768.046545 234.658909 1000.727273 512.674909 1000.727273c257.070545 0 468.48-198.935273 487.936-450.746182A35.188364 35.188364 0 0 0 965.632 512" p-id="2270"></path></svg>