<?xml version="1.0" standalone="no"?><!DOCTYPE svg PUBLIC "-//W3C//DTD SVG 1.1//EN" "http://www.w3.org/Graphics/SVG/1.1/DTD/svg11.dtd"><svg t="1612104912449" class="icon" viewBox="0 0 1024 1024" version="1.1" xmlns="http://www.w3.org/2000/svg" p-id="3655" xmlns:xlink="http://www.w3.org/1999/xlink" width="128" height="128"><defs><style type="text/css"></style></defs><path d="M672 85.6c17.6 0 32 14.4 32 32.8v196.8c0 18.4-14.4 32.8-32 32.8H544v131.2h352c17.6 0 32 14.4 32 32.8v28c-36-18.4-76.8-28.8-117.6-28.8-45.6 0-88.8 12-125.6 32.8H544v131.2h28c-8 20.8-13.6 43.2-16 65.6H448V872h128v-2.4c10.4 24 24.8 46.4 42.4 66.4-3.2 1.6-6.4 1.6-10.4 1.6H416c-17.6 0-32-15.2-32-32.8V708.8c0-18.4 14.4-32.8 32-32.8h64V544.8H160v131.2h64c17.6 0 32 14.4 32 32.8v196.8c0 18.4-14.4 32.8-32 32.8H32c-17.6 0-32-15.2-32-32.8V708.8c0-18.4 14.4-32.8 32-32.8h64V512c0-18.4 14.4-32.8 32-32.8h352V348H352c-17.6 0-32-15.2-32-32.8V118.4c0-18.4 14.4-32.8 32-32.8h320z m-480 656H64v131.2h128V741.6z m448-590.4H384v131.2h256V151.2z" p-id="3656" fill="#cdcdcd"></path><path d="M852 766.4c0 25.6-20.8 46.4-45.6 46.4-25.6 0-46.4-20.8-45.6-46.4 0-25.6 20.8-46.4 45.6-46.4s45.6 20.8 45.6 46.4m151.2-26.4c-6.4-8-16-12.8-26.4-13.6l-11.2-0.8v2.4h-40c-2.4-6.4-4.8-12-7.2-18.4l36.8-37.6c15.2-15.2 15.2-40 0-56-15.2-15.2-39.2-15.2-54.4 0l-37.6 37.6c-5.6-3.2-11.2-5.6-17.6-8v-52.8c0-21.6-16.8-39.2-38.4-39.2-10.4 0-20 4-27.2 11.2-7.2 7.2-11.2 17.6-11.2 28v52c-6.4 2.4-12 4.8-17.6 8l-36.8-37.6c-7.2-7.2-16.8-11.2-27.2-11.2-10.4 0-20 4-27.2 11.2-15.2 15.2-15.2 40 0 56l36.8 37.6c-3.2 5.6-5.6 12-7.2 18.4h-52c-21.6 0-38.4 17.6-38.4 39.2s17.6 39.2 38.4 39.2h52.8c2.4 6.4 4.8 12 7.2 18.4l-36.8 37.6c-15.2 15.2-15.2 40 0 56 7.2 7.2 16.8 11.2 27.2 11.2 10.4 0 20-4 27.2-11.2L752 880c5.6 3.2 12 5.6 17.6 8v51.2c0 21.6 17.6 39.2 38.4 39.2 21.6 0 38.4-17.6 38.4-39.2v-48.8c6.4-2.4 12-4.8 17.6-8l36.8 37.6c7.2 7.2 16.8 11.2 27.2 11.2 10.4 0 20-4 27.2-11.2 15.2-15.2 15.2-40 0-55.2l-37.6-40.8c3.2-5.6 5.6-12 8-18.4h51.2c19.2-1.6 34.4-16.8 36-36.8 0.8-10.4-2.4-20.8-9.6-28.8" p-id="3657" fill="#cdcdcd"></path></svg>