<?xml version="1.0" standalone="no"?><!DOCTYPE svg PUBLIC "-//W3C//DTD SVG 1.1//EN" "http://www.w3.org/Graphics/SVG/1.1/DTD/svg11.dtd"><svg t="1613460502789" class="icon" viewBox="0 0 1024 1024" version="1.1" xmlns="http://www.w3.org/2000/svg" p-id="2415" xmlns:xlink="http://www.w3.org/1999/xlink" width="128" height="128"><defs><style type="text/css"></style></defs><path d="M73.500444 719.530667l139.377778-139.377778a50.403556 50.403556 0 0 1 47.104-15.246222c14.336 3.754667 20.935111 15.246222 24.746667 28.16 3.811556 12.970667-3.811556 36.181333-17.351111 47.786666l-74.752 70.428445H483.555556c16.952889 0 32.597333 5.916444 41.073777 20.536889a47.388444 47.388444 0 0 1 0 47.445333c-8.476444 14.620444-24.120889 19.342222-41.073777 19.342222H192.625778L267.377778 871.196444c12.060444 11.946667 21.902222 33.336889 17.351111 47.786667-4.551111 14.506667-13.425778 21.048889-25.998222 24.519111-12.515556 3.413333-33.792-0.170667-45.852445-12.117333l-142.222222-142.222222a47.331556 47.331556 0 0 1-13.255111-40.334223 47.274667 47.274667 0 0 1 16.099555-29.297777z" fill="#cdcdcd" p-id="2416"></path><path d="M718.620444 944.753778a47.388444 47.388444 0 0 1-41.016888-23.722667c-8.533333-14.620444-8.533333-25.088 0-39.765333a47.388444 47.388444 0 0 1 41.016888-23.665778h150.072889l-3.015111-495.274667L512 152.405333 143.132444 362.382222v116.053334c0 26.168889-17.066667 45.226667-43.235555 45.226666C73.614222 523.605333 56.888889 504.604444 56.888889 478.435556v-142.222223c0-16.327111 8.362667-31.573333 22.243555-40.277333l407.665778-233.244444a47.388444 47.388444 0 0 1 50.289778 0l393.216 233.244444c13.880889 8.704 22.357333 23.893333 22.300444 40.334222l3.015112 561.095111c0 26.168889-21.219556 47.388444-47.445334 47.388445h-189.610666z" fill="#cdcdcd" p-id="2417"></path></svg>