<?xml version="1.0" standalone="no"?><!DOCTYPE svg PUBLIC "-//W3C//DTD SVG 1.1//EN" "http://www.w3.org/Graphics/SVG/1.1/DTD/svg11.dtd"><svg t="1625289635335" class="icon" viewBox="0 0 1152 1024" version="1.1" xmlns="http://www.w3.org/2000/svg" p-id="2402" width="90" height="80" xmlns:xlink="http://www.w3.org/1999/xlink"><defs><style type="text/css"></style></defs><path d="M1034.112 515.072l0.064-5.696C1034.24 256.768 828.672 51.2 576 51.2a456.96 456.96 0 0 0-240 67.84 67.264 67.264 0 1 0 70.592 114.56A322.752 322.752 0 0 1 576 185.664a324.032 324.032 0 0 1 323.584 329.344h-114.496l183.488 262.72L1152 515.072h-117.888z m-250.432 259.072c-13.696 0-27.008 4.16-38.272 11.904A322.752 322.752 0 0 1 576 833.92a324.032 324.032 0 0 1-323.648-329.344h114.56L183.424 241.856 0 504.576h117.888v5.696c0 252.608 205.44 458.176 458.112 458.176a456.96 456.96 0 0 0 240-67.84 67.264 67.264 0 0 0-32.32-126.464z" p-id="2403" fill="#707070"></path></svg>