<?xml version="1.0" standalone="no"?><!DOCTYPE svg PUBLIC "-//W3C//DTD SVG 1.1//EN" "http://www.w3.org/Graphics/SVG/1.1/DTD/svg11.dtd"><svg t="1615965902577" class="icon" viewBox="0 0 1024 1024" version="1.1" xmlns="http://www.w3.org/2000/svg" p-id="1510" width="64" height="64" xmlns:xlink="http://www.w3.org/1999/xlink"><defs><style type="text/css"></style></defs><path d="M295.822222 741.603556h-38.001778v47.786666h-37.774222V622.250667h72.704c43.690667 0 68.266667 20.935111 68.266667 58.026666A54.954667 54.954667 0 0 1 329.955556 734.208l35.612444 55.182222h-42.780444z m-3.527111-31.516445c20.707556 0 32.654222-9.557333 32.654222-28.672s-11.946667-27.875556-32.654222-27.875555h-34.474667v56.888888zM430.762667 653.539556v41.073777h75.548444v31.516445h-75.548444v63.260444h-37.660445V622.250667h120.149334v31.288889zM534.755556 789.390222V622.250667h37.774222v167.139555zM680.96 622.250667c51.882667 0 87.950222 34.133333 87.950222 83.512889s-36.636444 83.626667-89.429333 83.626666h-69.518222V622.250667z m-33.223111 135.395555h34.133333a48.241778 48.241778 0 0 0 48.583111-51.541333 49.379556 49.379556 0 0 0-50.176-52.110222h-32.540444z" fill="#409EFF" p-id="1511"></path><path d="M882.915556 898.844444H102.4V334.506667h195.356444V386.844444H154.737778v459.662223H830.577778V644.096h52.337778V898.844444z" fill="#409EFF" p-id="1512"></path><path d="M610.872889 435.768889m-73.955556 0a73.955556 73.955556 0 1 0 147.911111 0 73.955556 73.955556 0 1 0-147.911111 0Z" fill="#409EFF" p-id="1513"></path><path d="M789.617778 530.773333l-46.193778-24.576A150.186667 150.186667 0 0 0 477.866667 365.226667l-45.511111-24.576a202.524444 202.524444 0 1 1 357.262222 190.122666z" fill="#409EFF" p-id="1514"></path><path d="M885.077333 581.518222L838.883556 557.511111a258.389333 258.389333 0 0 0-106.837334-349.297778 258.730667 258.730667 0 0 0-349.297778 106.837334l-46.193777-24.576a310.613333 310.613333 0 0 1 548.522666 291.043555z" fill="#409EFF" p-id="1515"></path></svg>