<?xml version="1.0" standalone="no"?><!DOCTYPE svg PUBLIC "-//W3C//DTD SVG 1.1//EN" "http://www.w3.org/Graphics/SVG/1.1/DTD/svg11.dtd"><svg t="1611902084985" class="icon" viewBox="0 0 1024 1024" version="1.1" xmlns="http://www.w3.org/2000/svg" p-id="2027" width="128" height="128" xmlns:xlink="http://www.w3.org/1999/xlink"><defs><style type="text/css"></style></defs><path d="M514.332444 719.530667l-139.377777-139.377778a50.403556 50.403556 0 0 0-47.047111-15.246222c-14.336 3.754667-20.992 15.246222-24.803556 28.16-3.811556 12.970667 3.811556 36.181333 17.351111 47.786666l74.808889 70.428445H104.277333c-16.896 0-32.597333 5.916444-41.016889 20.536889a47.388444 47.388444 0 0 0 0 47.445333c8.419556 14.620444 24.120889 19.342222 41.016889 19.342222h290.986667l-74.808889 72.590222c-12.003556 11.946667-21.845333 33.336889-17.351111 47.786667 4.551111 14.506667 13.425778 21.048889 25.998222 24.519111 12.572444 3.413333 33.848889-0.170667 45.852445-12.117333l142.222222-142.222222a47.331556 47.331556 0 0 0 13.312-40.334223 47.274667 47.274667 0 0 0-16.156445-29.297777z" fill="#cdcdcd" p-id="2028"></path><path d="M718.620444 944.753778a47.388444 47.388444 0 0 1-41.016888-23.722667c-8.533333-14.620444-8.533333-25.088 0-39.765333a47.388444 47.388444 0 0 1 41.016888-23.665778h150.072889l-3.015111-495.274667L512 152.405333 143.132444 362.382222v116.053334c0 26.168889-17.066667 45.226667-43.235555 45.226666C73.614222 523.605333 56.888889 504.604444 56.888889 478.435556v-142.222223c0-16.327111 8.362667-31.573333 22.243555-40.277333l407.665778-233.244444a47.388444 47.388444 0 0 1 50.289778 0l393.216 233.244444c13.880889 8.704 22.357333 23.893333 22.300444 40.334222l3.015112 561.095111c0 26.168889-21.219556 47.388444-47.445334 47.388445h-189.610666z" fill="#cdcdcd" p-id="2029"></path></svg>